HIERARCHY
ROOT root
{
	OFFSET 0.000000 0.000000 0.000000
	CHANNELS 6 Xposition Yposition Zposition Zrotation Yrotation Xrotation
	JOINT lhip
	{
		OFFSET 0.058581 -0.082280 -0.017664
		CHANNELS 3 Zrotation Yrotation Xrotation
		JOINT lknee
		{
			OFFSET 0.043451 -0.386469 0.008037
			CHANNELS 3 Zrotation Yrotation Xrotation
			JOINT lankle
			{
				OFFSET -0.014790 -0.426874 -0.037428
				CHANNELS 3 Zrotation Yrotation Xrotation
				JOINT ltoe
				{
					OFFSET 0.041054 -0.060286 0.122042
					CHANNELS 3 Zrotation Yrotation Xrotation
					End Site
					{
						OFFSET 0.000000 0.000000 0.000000
					}
				}
			}
		}
	}
	JOINT rhip
	{
		OFFSET -0.060310 -0.090513 -0.013543
		CHANNELS 3 Zrotation Yrotation Xrotation
		JOINT rknee
		{
			OFFSET -0.043257 -0.383688 -0.004843
			CHANNELS 3 Zrotation Yrotation Xrotation
			JOINT rankle
			{
				OFFSET 0.019056 -0.420046 -0.034562
				CHANNELS 3 Zrotation Yrotation Xrotation
				JOINT rtoe
				{
					OFFSET -0.034840 -0.062106 0.130323
					CHANNELS 3 Zrotation Yrotation Xrotation
					End Site
					{
						OFFSET 0.000000 0.000000 0.000000
					}
				}
			}
		}
	}
	JOINT lowerback
	{
		OFFSET 0.004439 0.124404 -0.038385
		CHANNELS 3 Zrotation Yrotation Xrotation
		JOINT upperback
		{
			OFFSET 0.004488 0.137956 0.026820
			CHANNELS 3 Zrotation Yrotation Xrotation
			JOINT chest
			{
				OFFSET -0.002265 0.056032 0.002855
				CHANNELS 3 Zrotation Yrotation Xrotation
				JOINT lowerneck
				{
					OFFSET -0.013390 0.211636 -0.033468
					CHANNELS 3 Zrotation Yrotation Xrotation
					JOINT upperneck
					{
						OFFSET 0.010113 0.088937 0.050410
						CHANNELS 3 Zrotation Yrotation Xrotation
						End Site
						{
							OFFSET 0.000000 0.000000 0.000000
						}
					}
				}
				JOINT lclavicle
				{
					OFFSET 0.071702 0.114000 -0.018898
					CHANNELS 3 Zrotation Yrotation Xrotation
					JOINT lshoulder
					{
						OFFSET 0.122921 0.045205 -0.019046
						CHANNELS 3 Zrotation Yrotation Xrotation
						JOINT lelbow
						{
							OFFSET 0.255332 -0.015649 -0.022946
							CHANNELS 3 Zrotation Yrotation Xrotation
							JOINT lwrist
							{
								OFFSET 0.265709 0.012698 -0.007375
								CHANNELS 3 Zrotation Yrotation Xrotation
								End Site
								{
									OFFSET 0.000000 0.000000 0.000000
								}
							}
						}
					}
				}
				JOINT rclavicle
				{
					OFFSET -0.082954 0.112472 -0.023707
					CHANNELS 3 Zrotation Yrotation Xrotation
					JOINT rshoulder
					{
						OFFSET -0.113228 0.046853 -0.008472
						CHANNELS 3 Zrotation Yrotation Xrotation
						JOINT relbow
						{
							OFFSET -0.260127 -0.014369 -0.031269
							CHANNELS 3 Zrotation Yrotation Xrotation
							JOINT rwrist
							{
								OFFSET -0.269108 0.006794 -0.006027
								CHANNELS 3 Zrotation Yrotation Xrotation
								End Site
								{
									OFFSET 0.000000 0.000000 0.000000
								}
							}
						}
					}
				}
			}
		}
	}
}
MOTION
Frames: 12
Frame Time: 0.033333
0.700359 0.703522 0.259586 119.865910 -77.565952 -123.208584 -7.806956 -10.637898 -46.493232 -4.599178 24.324562 83.982199 2.311142 10.274990 17.213732 0.000000 -0.000000 0.000000 -15.302267 12.527814 -59.080037 -4.989484 -5.234008 104.891123 7.634757 -15.763398 21.722363 0.000000 -0.000000 0.000000 -3.518775 -6.572118 14.795051 -9.269045 -0.411429 -24.030241 -5.875449 -4.780741 1.536965 2.637982 -13.639706 12.629547 1.423048 31.173150 0.888880 -9.713561 -24.499006 -1.092075 -58.926051 -15.894580 35.057296 -2.385967 -84.555139 31.877333 38.357339 -19.132299 -23.671777 -37.129877 16.136909 -29.308443 -34.911065 45.142749 -47.457770 3.718460 13.665360 22.898814 27.975212 1.838172 19.489469 
0.700069 0.703888 0.259293 120.353419 -77.702178 -123.685872 -7.457503 -10.725785 -46.433615 -4.212848 24.504520 84.032523 2.461253 10.238692 17.323739 0.000000 -0.000000 0.000000 -15.403516 12.784173 -59.018930 -5.102168 -5.361483 104.630574 8.087344 -14.833617 22.259524 0.000000 -0.000000 0.000000 -3.450304 -6.683904 14.769530 -9.215310 -0.348474 -23.573466 -5.649647 -4.816742 0.699554 2.876733 -14.845690 12.619555 1.745638 29.918044 1.046448 -10.142165 -24.783753 -0.590501 -58.565277 -15.685327 34.740097 -2.219822 -84.706893 31.160458 37.085949 -19.864782 -23.130383 -37.511148 16.572036 -29.398312 -34.107795 45.003829 -47.099827 3.680864 13.866178 23.363848 28.332200 1.735711 19.422221 
0.699815 0.704146 0.258861 121.114233 -77.875718 -124.471890 -7.206113 -10.605174 -46.306288 -3.931876 24.399165 84.033183 2.532026 10.480005 17.288021 0.000000 -0.000000 0.000000 -15.283758 13.058895 -58.834715 -4.817459 -5.459103 104.102380 8.676634 -14.105469 22.678813 0.000000 -0.000000 0.000000 -3.359063 -6.732665 14.816857 -9.085063 -0.343431 -23.411964 -5.545733 -4.790960 0.457073 2.857893 -14.726406 12.848166 1.628570 29.851200 0.750328 -10.113671 -24.860542 -0.499296 -58.547488 -15.676724 34.802444 -1.672991 -84.711015 30.601077 36.936550 -19.927901 -23.083502 -37.498836 16.639620 -29.311948 -34.171599 44.988771 -47.086108 3.551581 13.859655 23.558552 28.280159 1.960511 19.529488 
0.699486 0.704515 0.258356 122.001963 -78.069879 -125.362056 -6.970395 -10.504319 -46.138827 -3.524360 24.193184 83.862481 2.767573 10.935583 17.272740 0.000000 -0.000000 0.000000 -15.153295 13.349826 -58.631243 -4.518297 -5.610151 103.209879 9.542513 -13.252177 23.504873 0.000000 -0.000000 0.000000 -3.238514 -6.795419 14.823032 -8.961505 -0.323590 -23.261200 -5.421804 -4.773879 0.216460 2.778717 -14.586267 13.191515 1.465832 29.811858 0.335832 -10.080829 -24.906623 -0.424093 -58.493934 -15.686310 34.954762 -1.484906 -84.699155 30.366656 36.941506 -19.938686 -23.138000 -37.471912 16.647406 -29.245372 -34.265352 45.039558 -46.962636 3.584280 13.947921 23.605958 28.031641 2.225349 19.135608 
0.699288 0.704749 0.258017 122.581824 -78.213433 -125.961122 -6.813726 -10.464302 -46.002911 -3.226114 24.041607 83.703904 3.092655 11.346467 17.190377 0.000000 -0.000000 0.000000 -15.010341 13.518385 -58.493343 -4.316128 -5.751475 102.604730 9.966381 -12.797162 23.942008 0.000000 -0.000000 0.000000 -3.159993 -6.824947 14.869720 -8.880446 -0.314569 -23.174941 -5.332838 -4.771830 0.048578 2.729299 -14.543573 13.383163 1.396193 29.774236 0.148694 -10.083715 -24.964980 -0.350984 -58.434235 -15.702564 35.036151 -1.475220 -84.689408 30.317294 37.029817 -19.892165 -23.130007 -37.458667 16.681490 -29.194744 -34.284640 45.048441 -46.842007 3.559068 14.017490 23.641168 27.935512 2.371302 18.924730 
0.698986 0.705066 0.257582 123.455144 -78.393406 -126.937803 -6.653817 -10.307177 -45.729699 -2.932256 23.753794 83.422185 3.295329 11.774783 16.856663 0.000000 -0.000000 0.000000 -14.710038 13.718182 -58.206586 -4.062332 -5.900141 101.788152 10.347610 -12.134749 23.930796 0.000000 -0.000000 0.000000 -3.021824 -6.859098 14.980649 -8.801034 -0.330118 -23.031263 -5.228249 -4.758247 -0.150342 2.611003 -14.412821 13.711294 1.279919 29.740676 -0.182553 -10.011220 -25.069330 -0.280855 -58.400110 -15.691034 35.052884 -1.414844 -84.711863 30.303324 37.006004 -19.813564 -23.110474 -37.530133 16.723520 -29.199231 -34.167254 45.063579 -46.741611 3.527235 14.084215 23.737070 27.754188 2.509264 18.709349 
0.698725 0.705195 0.257386 124.052831 -78.490043 -127.611593 -6.601236 -10.172682 -45.509600 -2.878388 23.472708 83.010034 3.307788 11.981646 16.589007 0.000000 -0.000000 0.000000 -14.495751 13.818228 -58.013707 -3.931410 -5.949201 101.129106 10.641787 -11.788332 23.871553 0.000000 -0.000000 0.000000 -2.923228 -6.863245 15.044959 -8.761760 -0.326797 -22.948992 -5.149054 -4.761418 -0.239806 2.468425 -14.367192 13.953161 1.155500 29.732629 -0.445223 -9.878910 -25.141252 -0.268491 -58.417754 -15.734258 35.114549 -1.386132 -84.717562 30.355972 37.145904 -19.614650 -23.157283 -37.647305 16.726315 -29.175220 -34.149599 45.025082 -46.649999 3.569132 14.081104 23.773551 27.588184 2.626629 18.447845 
0.698567 0.705142 0.257411 124.490185 -78.493320 -128.117149 -6.591823 -10.086469 -45.358290 -3.018516 23.301298 82.519249 3.267233 11.941535 16.656795 0.000000 -0.000000 0.000000 -14.387211 13.875739 -57.944257 -3.872727 -5.939234 100.704021 10.692396 -11.687374 23.992114 0.000000 -0.000000 0.000000 -2.867339 -6.821887 15.070986 -8.753058 -0.326604 -22.861053 -5.104986 -4.765452 -0.285058 2.336452 -14.335042 14.077601 1.106755 29.714907 -0.595186 -9.770266 -25.258063 -0.248518 -58.386375 -15.775971 35.124305 -0.917585 -84.714271 29.857066 37.206421 -19.606167 -23.268688 -37.778151 16.763822 -29.183909 -34.047116 44.954600 -46.495386 3.535342 14.121027 23.751625 27.538295 2.685026 18.315034 
0.698559 0.704946 0.257610 124.895985 -78.430576 -128.563523 -6.627180 -10.016610 -45.329928 -3.196732 23.164938 82.086784 3.192989 11.840828 16.659491 0.000000 -0.000000 0.000000 -14.324006 13.898121 -57.903811 -3.983807 -5.869508 100.599770 10.643679 -11.821385 23.559794 0.000000 -0.000000 0.000000 -2.836991 -6.725733 15.093139 -8.772375 -0.316368 -22.815579 -5.082428 -4.754673 -0.268350 2.280039 -14.319310 14.093611 1.088587 29.687769 -0.719339 -9.610316 -25.368649 -0.297078 -58.413190 -15.852595 35.130787 -0.850694 -84.688719 29.810686 37.346779 -19.565694 -23.234337 -37.925840 16.775721 -29.251521 -33.914147 44.834546 -46.321438 3.571891 14.148533 23.720268 27.465032 2.734186 18.221212 
0.698499 0.704544 0.258356 124.825648 -78.219943 -128.499269 -6.819328 -10.081193 -45.443374 -3.702545 23.167677 81.618636 3.081853 11.404782 16.793690 0.000000 -0.000000 0.000000 -14.455049 13.778212 -58.001602 -4.203532 -5.663092 100.753595 10.325330 -12.540908 23.209706 0.000000 -0.000000 0.000000 -2.872752 -6.582158 14.982825 -8.852537 -0.319218 -22.809580 -5.132272 -4.756089 -0.076904 2.232784 -14.384388 13.962059 1.149244 29.816803 -0.682824 -9.371872 -25.476568 -0.382750 -58.498289 -15.953865 35.056867 -0.943418 -84.657221 29.959765 37.590615 -19.473546 -23.401185 -38.184568 16.750313 -29.349915 -33.620973 44.759717 -46.105307 3.431953 14.119422 23.492496 27.545406 2.618335 18.344626 
0.698430 0.704298 0.259018 124.728392 -78.046639 -128.396477 -6.969602 -10.187418 -45.576232 -3.994185 23.307305 81.430143 2.930996 11.056922 16.987781 0.000000 -0.000000 0.000000 -14.616178 13.672205 -58.131580 -4.394177 -5.513177 100.944567 10.083213 -13.054179 23.023363 0.000000 -0.000000 0.000000 -2.877799 -6.498515 14.918858 -8.933047 -0.291283 -22.791059 -5.171668 -4.744884 -0.012897 2.169712 -14.510451 13.865723 1.186890 29.916481 -0.610260 -9.346605 -25.522286 -0.423161 -58.569268 -15.994918 35.086160 -0.823108 -84.615861 29.858973 37.761073 -19.430651 -23.379273 -38.305435 16.759801 -29.382921 -33.520590 44.697952 -45.932685 3.380044 14.126276 23.322057 27.643199 2.515039 18.390889 
0.698230 0.704216 0.259362 124.849043 -77.950928 -128.524073 -7.026997 -10.243203 -45.648921 -3.877201 23.467925 81.492863 2.976811 11.122754 17.076940 0.000000 -0.000000 0.000000 -14.683276 13.656422 -58.182314 -4.457229 -5.448586 101.021462 10.065880 -13.197680 22.941518 0.000000 -0.000000 0.000000 -2.844107 -6.457130 14.876109 -8.995470 -0.247327 -22.765182 -5.197568 -4.732875 -0.015278 2.117462 -14.584458 13.915505 1.174349 29.961359 -0.600283 -9.377648 -25.498062 -0.434653 -58.579526 -16.019781 35.116274 -0.918461 -84.597959 29.944761 37.729271 -19.432706 -23.379366 -38.351893 16.764402 -29.346011 -33.518077 44.652507 -45.838688 3.369612 14.118188 23.193245 27.641846 2.519323 18.335506 
